<svg width="22" height="22" viewBox="0 0 22 22" fill="black" stroke='' xmlns="http://www.w3.org/2000/svg">
<path d="M11 0C4.95819 0 0 4.95819 0 11C0 17.0418 4.95819 22 11 22C17.0418 22 22 17.0418 22 11C22 4.95819 17.0418 0 11 0ZM11 19.3789C6.38002 19.3789 2.62109 15.62 2.62109 11C2.62109 6.38002 6.38002 2.62109 11 2.62109C15.62 2.62109 19.3789 6.38002 19.3789 11C19.3789 15.62 15.62 19.3789 11 19.3789Z" />
<path d="M12.2891 9.06641C12.2891 9.77841 11.712 10.3555 11 10.3555C10.288 10.3555 9.71094 9.77841 9.71094 9.06641C9.71094 8.3544 10.288 7.77734 11 7.77734C11.712 7.77734 12.2891 8.3544 12.2891 9.06641Z" />
<path d="M11 11.6446C9.85814 11.6446 8.89873 10.8937 8.56085 9.86362C6.85503 10.0496 5.26434 10.4068 3.91402 10.9261C3.91368 10.9509 3.91016 10.9751 3.91016 11.0001C3.91016 11.745 4.02715 12.4627 4.24098 13.1378C5.29573 12.5873 6.32849 12.2892 7.13281 12.2892C7.80571 12.2892 8.32251 12.4793 8.71208 12.8714C9.61275 13.776 9.71597 15.6119 9.71799 17.9678C10.1344 18.0443 10.5618 18.09 11 18.09C11.4384 18.09 11.8658 18.0443 12.2825 17.9678C12.284 15.6137 12.3867 13.777 13.2879 12.8714C13.6775 12.4798 14.1936 12.2892 14.8672 12.2892C15.6609 12.2892 16.6959 12.5759 17.7605 13.1336C17.9737 12.4599 18.0898 11.7435 18.0898 11.0001C18.0898 10.9756 18.0863 10.9519 18.0862 10.9276C16.6232 10.3635 15.0045 10.0348 13.4393 9.86328C13.1014 10.8937 12.142 11.6446 11 11.6446Z" />
</svg>